<svg width="27" height="26" viewBox="0 0 27 26" fill="none" xmlns="http://www.w3.org/2000/svg">
    <path
        d="M4.63939 5.53261L4.25292 5.70967L4.3655 6.11959L6.7404 14.7673C5.84274 15.3124 5.03433 15.892 4.33621 16.489C3.35874 17.3248 2.58203 18.2079 2.08447 19.0939C1.58732 19.9791 1.35148 20.9006 1.52001 21.7854C1.86447 23.5936 3.72104 24.5661 6.02548 24.8716C8.37909 25.1836 11.4404 24.8495 14.6626 23.8255C17.8868 22.8009 20.7081 21.2649 22.6638 19.5927C23.6412 18.7568 24.4179 17.8738 24.9155 16.9878C25.4127 16.1025 25.6485 15.181 25.48 14.2963C25.1355 12.488 23.2789 11.5156 20.9745 11.21C19.7005 11.0411 18.2192 11.0616 16.6172 11.2782L14.0328 1.86759L13.8771 1.30049L13.3424 1.54543L4.63939 5.53261Z"
        fill="#FFA62B" stroke="black" />
        
</svg>